<mxfile host="app.diagrams.net" modified="2023-12-10T03:02:53.752Z" agent="Mozilla/5.0 (Windows NT 10.0; Win64; x64) AppleWebKit/537.36 (KHTML, like Gecko) Chrome/119.0.0.0 Safari/537.36" etag="Qm9GDrKqDsVv8eLXe5eZ" version="22.1.7" type="google">
  <diagram name="ページ1" id="lVRmAsgrSMCmx-reCkgU">
    <mxGraphModel grid="1" page="1" gridSize="10" guides="1" tooltips="1" connect="1" arrows="1" fold="1" pageScale="1" pageWidth="827" pageHeight="1169" math="0" shadow="0">
      <root>
        <mxCell id="0" />
        <mxCell id="1" parent="0" />
        <mxCell id="ldqThhZXQqSLmX8WrYLi-3" value="" style="edgeStyle=orthogonalEdgeStyle;rounded=0;orthogonalLoop=1;jettySize=auto;html=1;" edge="1" parent="1" source="ldqThhZXQqSLmX8WrYLi-1" target="ldqThhZXQqSLmX8WrYLi-2">
          <mxGeometry relative="1" as="geometry" />
        </mxCell>
        <mxCell id="ldqThhZXQqSLmX8WrYLi-1" value="データの受け取り&lt;br&gt;(開始)" style="rounded=1;whiteSpace=wrap;html=1;arcSize=50;" vertex="1" parent="1">
          <mxGeometry x="320" y="130" width="120" height="60" as="geometry" />
        </mxCell>
        <mxCell id="ldqThhZXQqSLmX8WrYLi-5" value="" style="edgeStyle=orthogonalEdgeStyle;rounded=0;orthogonalLoop=1;jettySize=auto;html=1;" edge="1" parent="1" source="ldqThhZXQqSLmX8WrYLi-2" target="ldqThhZXQqSLmX8WrYLi-4">
          <mxGeometry relative="1" as="geometry" />
        </mxCell>
        <mxCell id="ldqThhZXQqSLmX8WrYLi-2" value="データ形式判別" style="whiteSpace=wrap;html=1;rounded=1;arcSize=50;" vertex="1" parent="1">
          <mxGeometry x="320" y="240" width="120" height="60" as="geometry" />
        </mxCell>
        <mxCell id="ldqThhZXQqSLmX8WrYLi-7" value="" style="edgeStyle=orthogonalEdgeStyle;rounded=0;orthogonalLoop=1;jettySize=auto;html=1;" edge="1" parent="1" source="ldqThhZXQqSLmX8WrYLi-4" target="ldqThhZXQqSLmX8WrYLi-6">
          <mxGeometry relative="1" as="geometry" />
        </mxCell>
        <mxCell id="ldqThhZXQqSLmX8WrYLi-4" value="すべてのデータを&lt;br&gt;配列に格納" style="whiteSpace=wrap;html=1;rounded=1;arcSize=50;" vertex="1" parent="1">
          <mxGeometry x="320" y="350" width="120" height="60" as="geometry" />
        </mxCell>
        <mxCell id="ldqThhZXQqSLmX8WrYLi-9" value="" style="edgeStyle=orthogonalEdgeStyle;rounded=0;orthogonalLoop=1;jettySize=auto;html=1;" edge="1" parent="1" source="ldqThhZXQqSLmX8WrYLi-6" target="ldqThhZXQqSLmX8WrYLi-8">
          <mxGeometry relative="1" as="geometry" />
        </mxCell>
        <mxCell id="ldqThhZXQqSLmX8WrYLi-6" value="生成した配列を返す" style="whiteSpace=wrap;html=1;rounded=1;arcSize=50;" vertex="1" parent="1">
          <mxGeometry x="320" y="460" width="120" height="60" as="geometry" />
        </mxCell>
        <mxCell id="ldqThhZXQqSLmX8WrYLi-8" value="データの受け取り&lt;br&gt;(終了)" style="whiteSpace=wrap;html=1;rounded=1;arcSize=50;" vertex="1" parent="1">
          <mxGeometry x="320" y="570" width="120" height="60" as="geometry" />
        </mxCell>
      </root>
    </mxGraphModel>
  </diagram>
</mxfile>
